<?xml version="1.0" encoding="UTF-8"?>
<svg xmlns="http://www.w3.org/2000/svg" xmlns:xlink="http://www.w3.org/1999/xlink" viewBox="0 0 1208.31 829.04">
  <defs>
    <style>
      .cls-1 {
        fill: #191d37;
      }

      .cls-2 {
        fill: url(#Dégradé_sans_nom_30);
      }

      .cls-2, .cls-3, .cls-4, .cls-5, .cls-6 {
        stroke: #191d37;
      }

      .cls-2, .cls-3, .cls-4, .cls-5, .cls-6, .cls-7 {
        stroke-miterlimit: 10;
        stroke-width: 10px;
      }

      .cls-3 {
        fill: url(#Dégradé_sans_nom_48);
      }

      .cls-4 {
        fill: none;
      }

      .cls-5 {
        fill: url(#Dégradé_sans_nom_20);
      }

      .cls-6 {
        fill: url(#Dégradé_sans_nom_22);
      }

      .cls-7 {
        fill: url(#Dégradé_sans_nom_38);
        stroke: #1a1d37;
      }
    </style>
    <linearGradient id="Dégradé_sans_nom_20" data-name="Dégradé sans nom 20" x1="396.43" y1="338.91" x2="615.05" y2="338.91" gradientUnits="userSpaceOnUse">
      <stop offset="0" stop-color="#ffd402"/>
      <stop offset=".43" stop-color="#f18318"/>
      <stop offset=".72" stop-color="#e6311f"/>
    </linearGradient>
    <linearGradient id="Dégradé_sans_nom_30" data-name="Dégradé sans nom 30" x1="567.73" y1="338.91" x2="799.64" y2="338.91" gradientUnits="userSpaceOnUse">
      <stop offset="0" stop-color="#3667b0"/>
      <stop offset=".5" stop-color="#7ecde6"/>
      <stop offset="1" stop-color="#a9cf86"/>
    </linearGradient>
    <linearGradient id="Dégradé_sans_nom_38" data-name="Dégradé sans nom 38" x1="598.49" y1="360.22" x2="598.49" y2="523.68" gradientUnits="userSpaceOnUse">
      <stop offset="0" stop-color="#3f5ba6"/>
      <stop offset=".62" stop-color="#e72988"/>
    </linearGradient>
    <linearGradient id="Dégradé_sans_nom_48" data-name="Dégradé sans nom 48" x1="582.28" y1="397.05" x2="605.97" y2="307.49" gradientUnits="userSpaceOnUse">
      <stop offset="0" stop-color="#e6311f"/>
      <stop offset=".5" stop-color="#f18318"/>
      <stop offset="1" stop-color="#ffd402"/>
    </linearGradient>
    <linearGradient id="Dégradé_sans_nom_22" data-name="Dégradé sans nom 22" x1="597.69" y1="365.51" x2="598.73" y2="365.51" gradientUnits="userSpaceOnUse">
      <stop offset="0" stop-color="#e84a1d"/>
      <stop offset=".5" stop-color="#f18818"/>
      <stop offset="1" stop-color="#fcbe0c"/>
    </linearGradient>
  </defs>
  <g id="Calque_5" data-name="Calque 5">
    <g>
      <path class="cls-1" d="m598.22,469.82c-3.59,0-6.5,2.91-6.5,6.5v86c0,3.59,2.91,6.5,6.5,6.5s6.5-2.91,6.5-6.5v-86c0-3.59-2.91-6.5-6.5-6.5Z"/>
      <path class="cls-1" d="m598.22,98.18c-3.59,0-6.5,2.91-6.5,6.5v96.82c0,3.59,2.91,6.5,6.5,6.5s6.5-2.91,6.5-6.5v-96.82c0-3.59-2.91-6.5-6.5-6.5Z"/>
      <path class="cls-1" d="m626.3,480.17c-3.59,0-6.5,2.91-6.5,6.5v62.28c0,3.59,2.91,6.5,6.5,6.5s6.5-2.91,6.5-6.5v-62.28c0-3.59-2.91-6.5-6.5-6.5Z"/>
      <path class="cls-1" d="m626.3,111.55c-3.59,0-6.5,2.91-6.5,6.5v73.1c0,3.59,2.91,6.5,6.5,6.5s6.5-2.91,6.5-6.5v-73.1c0-3.59-2.91-6.5-6.5-6.5Z"/>
      <path class="cls-1" d="m654.37,484.71c-3.59,0-6.5,2.91-6.5,6.5v43.06c0,3.59,2.91,6.5,6.5,6.5s6.5-2.91,6.5-6.5v-43.06c0-3.59-2.91-6.5-6.5-6.5Z"/>
      <path class="cls-1" d="m654.37,126.23c-3.59,0-6.5,2.91-6.5,6.5v53.88c0,3.59,2.91,6.5,6.5,6.5s6.5-2.91,6.5-6.5v-53.88c0-3.59-2.91-6.5-6.5-6.5Z"/>
      <path class="cls-1" d="m682.46,484.04c-3.59,0-6.5,2.91-6.5,6.5v31.25c0,3.59,2.91,6.5,6.5,6.5s6.5-2.91,6.5-6.5v-31.25c0-3.59-2.91-6.5-6.5-6.5Z"/>
      <path class="cls-1" d="m682.46,138.71c-3.59,0-6.5,2.91-6.5,6.5v42.07c0,3.59,2.91,6.5,6.5,6.5s6.5-2.91,6.5-6.5v-42.07c0-3.59-2.91-6.5-6.5-6.5Z"/>
      <path class="cls-1" d="m710.54,478.08c-3.59,0-6.5,2.91-6.5,6.5v21.52c0,3.59,2.91,6.5,6.5,6.5s6.5-2.91,6.5-6.5v-21.52c0-3.59-2.91-6.5-6.5-6.5Z"/>
      <path class="cls-1" d="m710.54,154.4c-3.59,0-6.5,2.91-6.5,6.5v32.34c0,3.59,2.91,6.5,6.5,6.5s6.5-2.91,6.5-6.5v-32.34c0-3.59-2.91-6.5-6.5-6.5Z"/>
      <path class="cls-1" d="m738.62,466.03c-3.59,0-6.5,2.91-6.5,6.5v19.09c0,3.59,2.91,6.5,6.5,6.5s6.5-2.91,6.5-6.5v-19.09c0-3.59-2.91-6.5-6.5-6.5Z"/>
      <path class="cls-1" d="m738.62,168.89c-3.59,0-6.5,2.91-6.5,6.5v29.9c0,3.59,2.91,6.5,6.5,6.5s6.5-2.91,6.5-6.5v-29.9c0-3.59-2.91-6.5-6.5-6.5Z"/>
      <path class="cls-1" d="m828.59,258.92v179.87c0,3.59-2.91,6.5-6.5,6.5s-6.5-2.91-6.5-6.5v-179.87c0-3.59,2.91-6.5,6.5-6.5s6.5,2.91,6.5,6.5Z"/>
      <path class="cls-1" d="m856.67,229.39v238.92c0,3.59-2.91,6.5-6.5,6.5s-6.5-2.91-6.5-6.5v-238.92c0-3.59,2.91-6.5,6.5-6.5s6.5,2.91,6.5,6.5Z"/>
      <path class="cls-1" d="m884.75,292.59v112.53c0,3.59-2.91,6.5-6.5,6.5s-6.5-2.91-6.5-6.5v-112.53c0-3.59,2.91-6.5,6.5-6.5s6.5,2.91,6.5,6.5Z"/>
      <path class="cls-1" d="m912.83,309.87v77.96c0,3.59-2.91,6.5-6.5,6.5s-6.5-2.91-6.5-6.5v-77.96c0-3.59,2.91-6.5,6.5-6.5s6.5,2.91,6.5,6.5Z"/>
      <circle class="cls-1" cx="790.34" cy="188.04" r="9.94" transform="translate(-22.06 186.61) rotate(-13.28)"/>
      <g>
        <path class="cls-1" d="m940.92,325.22v47.27c0,3.59-2.91,6.5-6.5,6.5s-6.5-2.91-6.5-6.5v-47.27c0-3.59,2.91-6.5,6.5-6.5s6.5,2.91,6.5,6.5Z"/>
        <path class="cls-1" d="m969.14,348.85c0,5.49-4.45,9.94-9.93,9.94s-9.94-4.45-9.94-9.94,4.45-9.93,9.94-9.93,9.93,4.45,9.93,9.93Z"/>
      </g>
      <path class="cls-1" d="m570.13,480.16c-3.59,0-6.5,2.91-6.5,6.5v62.29c0,3.59,2.91,6.5,6.5,6.5s6.5-2.91,6.5-6.5v-62.29c0-3.59-2.91-6.5-6.5-6.5Z"/>
      <path class="cls-1" d="m570.13,111.55c-3.59,0-6.5,2.91-6.5,6.5v73.11c0,3.59,2.91,6.5,6.5,6.5s6.5-2.91,6.5-6.5v-73.11c0-3.59-2.91-6.5-6.5-6.5Z"/>
      <path class="cls-1" d="m542.05,484.71c-3.59,0-6.5,2.91-6.5,6.5v43.06c0,3.59,2.91,6.5,6.5,6.5s6.5-2.91,6.5-6.5v-43.06c0-3.59-2.91-6.5-6.5-6.5Z"/>
      <path class="cls-1" d="m542.05,126.23c-3.59,0-6.5,2.91-6.5,6.5v53.88c0,3.59,2.91,6.5,6.5,6.5s6.5-2.91,6.5-6.5v-53.88c0-3.59-2.91-6.5-6.5-6.5Z"/>
      <path class="cls-1" d="m513.97,484.04c-3.59,0-6.5,2.91-6.5,6.5v31.25c0,3.59,2.91,6.5,6.5,6.5s6.5-2.91,6.5-6.5v-31.25c0-3.59-2.91-6.5-6.5-6.5Z"/>
      <path class="cls-1" d="m513.97,138.71c-3.59,0-6.5,2.91-6.5,6.5v42.07c0,3.59,2.91,6.5,6.5,6.5s6.5-2.91,6.5-6.5v-42.07c0-3.59-2.91-6.5-6.5-6.5Z"/>
      <path class="cls-1" d="m485.89,478.08c-3.59,0-6.5,2.91-6.5,6.5v21.52c0,3.59,2.91,6.5,6.5,6.5s6.5-2.91,6.5-6.5v-21.52c0-3.59-2.91-6.5-6.5-6.5Z"/>
      <path class="cls-1" d="m485.89,154.4c-3.59,0-6.5,2.91-6.5,6.5v32.34c0,3.59,2.91,6.5,6.5,6.5s6.5-2.91,6.5-6.5v-32.34c0-3.59-2.91-6.5-6.5-6.5Z"/>
      <path class="cls-1" d="m457.81,466.04c-3.59,0-6.5,2.91-6.5,6.5v19.08c0,3.59,2.91,6.5,6.5,6.5s6.5-2.91,6.5-6.5v-19.08c0-3.59-2.91-6.5-6.5-6.5Z"/>
      <path class="cls-1" d="m457.81,168.89c-3.59,0-6.5,2.91-6.5,6.5v29.89c0,3.59,2.91,6.5,6.5,6.5s6.5-2.91,6.5-6.5v-29.89c0-3.59-2.91-6.5-6.5-6.5Z"/>
      <path class="cls-1" d="m374.34,252.41c-3.59,0-6.5,2.91-6.5,6.5v179.87c0,3.59,2.91,6.5,6.5,6.5s6.5-2.91,6.5-6.5v-179.87c0-3.59-2.91-6.5-6.5-6.5Z"/>
      <path class="cls-1" d="m346.26,222.89c-3.59,0-6.5,2.91-6.5,6.5v238.92c0,3.59,2.91,6.5,6.5,6.5s6.5-2.91,6.5-6.5v-238.92c0-3.59-2.91-6.5-6.5-6.5Z"/>
      <path class="cls-1" d="m318.17,286.08c-3.59,0-6.5,2.91-6.5,6.5v112.53c0,3.59,2.91,6.5,6.5,6.5s6.5-2.91,6.5-6.5v-112.53c0-3.59-2.91-6.5-6.5-6.5Z"/>
      <path class="cls-1" d="m290.09,303.37c-3.59,0-6.5,2.91-6.5,6.5v77.96c0,3.59,2.91,6.5,6.5,6.5s6.5-2.91,6.5-6.5v-77.96c0-3.59-2.91-6.5-6.5-6.5Z"/>
      <path class="cls-1" d="m262.01,318.72c-3.59,0-6.5,2.91-6.5,6.5v47.27c0,3.59,2.91,6.5,6.5,6.5s6.5-2.91,6.5-6.5v-47.27c0-3.59-2.91-6.5-6.5-6.5Z"/>
      <circle class="cls-1" cx="406.08" cy="188.04" r="9.94"/>
      <circle class="cls-1" cx="237.22" cy="348.85" r="9.94" transform="translate(-73.8 63.83) rotate(-13.28)"/>
    </g>
    <line class="cls-4" x1="598.21" y1="361.28" x2="598.21" y2="361.27"/>
    <path class="cls-5" d="m518,186.26c-23.87,0-46.46,5.48-66.57,15.24-27.65,13.42-50.64,34.94-65.88,61.48-12.85,22.37-20.2,48.29-20.2,75.93s7.35,53.57,20.2,75.93c15.23,26.53,38.23,48.06,65.88,61.48,20.11,9.76,42.7,15.24,66.57,15.24,84.3,0,152.65-68.34,152.65-152.65s-68.35-152.65-152.65-152.65Zm0,228.59c-.23,0-.45,0-.68-.01-28.4-.24-53.07-16.08-65.88-39.36-5.98-10.85-9.38-23.31-9.38-36.57s3.4-25.72,9.38-36.57c12.81-23.28,37.48-39.12,65.88-39.36.23-.01.45-.01.68-.01,41.94,0,75.94,34,75.94,75.94s-34,75.94-75.94,75.94Z"/>
    <path class="cls-2" d="m678.42,186.26c-23.87,0-46.46,5.48-66.57,15.24-27.65,13.42-50.64,34.94-65.88,61.48-12.85,22.37-20.2,48.29-20.2,75.93s7.35,53.57,20.2,75.93c15.23,26.53,38.23,48.06,65.88,61.48,20.11,9.76,42.7,15.24,66.57,15.24,84.3,0,152.65-68.34,152.65-152.65s-68.35-152.65-152.65-152.65Zm0,228.59c-.23,0-.45,0-.68-.01-28.4-.24-53.07-16.08-65.88-39.36-5.98-10.85-9.38-23.31-9.38-36.57s3.4-25.72,9.38-36.57c12.81-23.28,37.48-39.12,65.88-39.36.23-.01.45-.01.68-.01,41.94,0,75.94,34,75.94,75.94s-34,75.94-75.94,75.94Z"/>
    <path class="cls-7" d="m668.72,352.14c0,23.67-6,45.88-16.48,65.03-12.42,22.72-31.19,41.16-53.74,52.66-22.56-11.49-41.32-29.93-53.74-52.66-10.48-19.15-16.48-41.36-16.48-65.03,0-9.67,140.45-9.54,140.45,0Z"/>
    <path class="cls-3" d="m693.74,336.83c0,11.29-3.67,21.74-9.87,30.2-1.51,2.07-3.18,4.02-4.98,5.84l-1.09,1.06-34.64,33.81-35.46-33.51-.93-.88c-3.33-3.27-6.22-6.99-8.56-11.07-.94,1.64-1.98,3.23-3.09,4.75-1.51,2.07-3.18,4.02-4.98,5.84l-1.09,1.06-34.64,33.81-35.46-33.51-.93-.88c-9.47-9.29-15.34-22.22-15.34-36.52,0-28.25,22.91-51.16,51.16-51.16,18.98,0,35.55,10.34,44.37,25.7,8.83-15.36,25.4-25.7,44.38-25.7,28.25,0,51.15,22.91,51.15,51.16Z"/>
    <line class="cls-6" x1="598.73" y1="364.99" x2="597.69" y2="366.03"/>
  </g>
  <g id="Calque_6" data-name="Calque 6">
    <g>
      <g>
        <path class="cls-1" d="m214.76,708.2c-3.93,0-7.69-.62-11.28-1.85-3.58-1.23-6.72-3.02-9.4-5.35-2.68-2.33-4.61-5.1-5.77-8.3l12.95-4.8c.4,1.13,1.23,2.19,2.5,3.17,1.27.98,2.85,1.78,4.75,2.4,1.9.62,3.98.92,6.25.92s4.21-.33,6.12-.97c1.92-.65,3.47-1.56,4.65-2.73,1.18-1.17,1.77-2.53,1.77-4.1s-.62-2.87-1.85-3.9c-1.23-1.03-2.82-1.86-4.75-2.47-1.93-.62-3.92-1.09-5.95-1.42-5.03-.73-9.54-1.92-13.53-3.58-3.98-1.65-7.12-3.93-9.42-6.85s-3.45-6.62-3.45-11.12,1.23-8.12,3.68-11.35c2.45-3.23,5.68-5.75,9.7-7.55,4.02-1.8,8.36-2.7,13.03-2.7,3.87,0,7.6.62,11.2,1.85s6.74,3.02,9.43,5.35c2.68,2.33,4.61,5.13,5.77,8.4l-12.95,4.7c-.4-1.13-1.23-2.18-2.5-3.15-1.27-.97-2.85-1.75-4.75-2.35-1.9-.6-3.97-.9-6.2-.9-2.13-.03-4.16.28-6.08.95-1.92.67-3.48,1.58-4.7,2.75s-1.82,2.5-1.82,4c0,1.97.57,3.45,1.73,4.45,1.15,1,2.67,1.72,4.57,2.15,1.9.43,4,.82,6.3,1.15,4.73.7,9.1,1.94,13.1,3.72s7.21,4.15,9.62,7.1c2.42,2.95,3.62,6.54,3.62,10.78s-1.22,8.12-3.65,11.35c-2.43,3.23-5.65,5.75-9.65,7.55-4,1.8-8.35,2.7-13.05,2.7Z"/>
        <path class="cls-1" d="m282.31,708.2c-4.73,0-9.18-.94-13.35-2.83-4.17-1.88-7.83-4.49-11-7.82-3.17-3.33-5.65-7.19-7.45-11.58-1.8-4.38-2.7-9.08-2.7-14.08s.9-9.69,2.7-14.08c1.8-4.38,4.28-8.24,7.45-11.57,3.17-3.33,6.83-5.94,11-7.83,4.17-1.88,8.62-2.83,13.35-2.83s9.23.94,13.4,2.83c4.17,1.88,7.83,4.49,11,7.83,3.17,3.33,5.64,7.19,7.43,11.57,1.78,4.38,2.67,9.08,2.67,14.08s-.89,9.69-2.67,14.08c-1.78,4.38-4.26,8.24-7.43,11.58-3.17,3.33-6.83,5.94-11,7.82-4.17,1.88-8.63,2.83-13.4,2.83Zm0-13.8c2.83,0,5.5-.59,8-1.77s4.7-2.81,6.6-4.88,3.39-4.45,4.48-7.15c1.08-2.7,1.62-5.6,1.62-8.7s-.54-6.01-1.62-8.72c-1.08-2.72-2.58-5.1-4.48-7.15s-4.1-3.67-6.6-4.85c-2.5-1.18-5.17-1.78-8-1.78s-5.5.59-8,1.78c-2.5,1.18-4.7,2.81-6.6,4.88-1.9,2.07-3.39,4.45-4.48,7.15-1.08,2.7-1.62,5.6-1.62,8.7s.54,6.01,1.62,8.73c1.08,2.72,2.58,5.1,4.48,7.15s4.1,3.67,6.6,4.85,5.17,1.77,8,1.77Z"/>
        <path class="cls-1" d="m353.21,708.2c-5.6,0-10.52-1.37-14.77-4.1s-7.57-6.41-9.95-11.03c-2.38-4.62-3.58-9.74-3.58-15.38v-40.8h13.8v40.8c0,3.03.57,5.82,1.7,8.35,1.13,2.53,2.78,4.56,4.95,6.08,2.17,1.52,4.78,2.27,7.85,2.27s5.73-.75,7.88-2.25c2.15-1.5,3.78-3.52,4.88-6.05,1.1-2.53,1.65-5.33,1.65-8.4v-40.8h13.8v40.8c0,4.23-.67,8.19-2.02,11.88-1.35,3.68-3.27,6.93-5.77,9.73s-5.48,4.98-8.93,6.55c-3.45,1.57-7.27,2.35-11.48,2.35Z"/>
        <path class="cls-1" d="m391.07,706.9v-70h14.9l27.3,45.05v-45.05h13.8v70h-14.9l-27.3-45.05v45.05h-13.8Z"/>
        <path class="cls-1" d="m458.06,706.9v-70h23.2c4.83,0,9.36.91,13.57,2.73,4.22,1.82,7.93,4.33,11.15,7.55s5.73,6.93,7.55,11.15c1.82,4.22,2.73,8.74,2.73,13.58s-.91,9.36-2.73,13.58c-1.82,4.22-4.33,7.93-7.55,11.15s-6.93,5.73-11.15,7.55c-4.22,1.82-8.74,2.72-13.57,2.72h-23.2Zm13.8-13.8h9.4c2.87,0,5.57-.55,8.12-1.65,2.55-1.1,4.81-2.62,6.77-4.55,1.97-1.93,3.51-4.18,4.62-6.75,1.12-2.57,1.67-5.32,1.67-8.25s-.56-5.67-1.67-8.22c-1.12-2.55-2.65-4.8-4.6-6.75s-4.2-3.48-6.75-4.58-5.27-1.65-8.17-1.65h-9.4v42.4Z"/>
        <path class="cls-1" d="m577.21,636.9v7h-24v63h-7v-63h-23.95v-7h54.95Z"/>
        <path class="cls-1" d="m614.71,708.2c-4.73,0-9.18-.94-13.35-2.83-4.17-1.88-7.83-4.49-11-7.82-3.17-3.33-5.65-7.19-7.45-11.58-1.8-4.38-2.7-9.08-2.7-14.08s.9-9.69,2.7-14.08c1.8-4.38,4.28-8.24,7.45-11.57,3.17-3.33,6.83-5.94,11-7.83,4.17-1.88,8.62-2.83,13.35-2.83s9.23.94,13.4,2.83c4.17,1.88,7.83,4.49,11,7.83,3.17,3.33,5.64,7.19,7.43,11.57,1.78,4.38,2.67,9.08,2.67,14.08s-.89,9.69-2.67,14.08c-1.79,4.38-4.26,8.24-7.43,11.58-3.17,3.33-6.83,5.94-11,7.82-4.17,1.88-8.63,2.83-13.4,2.83Zm0-7c3.83,0,7.41-.77,10.72-2.32,3.32-1.55,6.23-3.68,8.75-6.38,2.52-2.7,4.48-5.82,5.9-9.35,1.42-3.53,2.12-7.28,2.12-11.25s-.72-7.77-2.15-11.33c-1.43-3.55-3.41-6.67-5.92-9.35-2.52-2.68-5.43-4.79-8.75-6.33-3.32-1.53-6.88-2.3-10.68-2.3s-7.41.78-10.72,2.33c-3.32,1.55-6.23,3.67-8.75,6.38-2.52,2.7-4.48,5.82-5.9,9.35-1.42,3.53-2.12,7.28-2.12,11.25s.72,7.82,2.15,11.35c1.43,3.53,3.41,6.65,5.93,9.35,2.52,2.7,5.43,4.81,8.75,6.33,3.32,1.52,6.88,2.27,10.67,2.27Z"/>
        <path class="cls-1" d="m690.31,708.2c-4.8,0-9.29-.94-13.48-2.83s-7.84-4.5-10.97-7.85c-3.13-3.35-5.58-7.22-7.35-11.6-1.77-4.38-2.65-9.08-2.65-14.08s.92-9.85,2.75-14.25c1.83-4.4,4.35-8.24,7.55-11.53,3.2-3.28,6.88-5.84,11.03-7.67,4.15-1.83,8.56-2.75,13.22-2.75,5.37,0,10.44,1.25,15.23,3.75,4.78,2.5,8.84,6.05,12.17,10.65l-6.25,3.4c-2.67-3.5-5.88-6.18-9.62-8.05-3.75-1.87-7.61-2.8-11.58-2.8s-7.31.76-10.62,2.28c-3.32,1.52-6.24,3.62-8.78,6.32-2.53,2.7-4.52,5.82-5.95,9.35-1.43,3.53-2.15,7.33-2.15,11.4s.72,7.82,2.15,11.35c1.43,3.53,3.41,6.64,5.92,9.33,2.52,2.68,5.44,4.78,8.77,6.3s6.9,2.27,10.7,2.27c3.13,0,6.11-.54,8.92-1.62,2.82-1.08,5.39-2.61,7.73-4.57,2.33-1.97,4.31-4.27,5.92-6.9,1.62-2.63,2.79-5.5,3.53-8.6h-18.9v-6.35h27.05c-.1,4.83-1.07,9.37-2.9,13.6-1.83,4.23-4.33,7.96-7.48,11.17-3.15,3.22-6.77,5.73-10.85,7.55-4.08,1.82-8.46,2.72-13.12,2.72Z"/>
        <path class="cls-1" d="m733.81,706.9v-70h42.6v7h-35.6v22h29.45v7h-29.45v27h35.6v7h-42.6Z"/>
        <path class="cls-1" d="m839.36,636.9v7h-24v63h-7v-63h-23.95v-7h54.95Z"/>
        <path class="cls-1" d="m892.11,636.9h7v70h-7v-34h-36.75v34h-7v-70h7v29h36.75v-29Z"/>
        <path class="cls-1" d="m910.11,706.9v-70h42.6v7h-35.6v22h29.45v7h-29.45v27h35.6v7h-42.6Z"/>
        <path class="cls-1" d="m963.36,706.9v-70h23.75c3.73,0,7.1.91,10.1,2.73s5.38,4.27,7.15,7.35c1.77,3.08,2.65,6.54,2.65,10.38,0,3.43-.7,6.55-2.1,9.35-1.4,2.8-3.31,5.12-5.72,6.95-2.42,1.83-5.14,3.05-8.17,3.65l17.1,29.6h-8.1l-16.85-29.05h-12.8v29.05h-7Zm7-36.05h16.15c2.47,0,4.72-.61,6.77-1.83,2.05-1.22,3.68-2.87,4.9-4.95,1.22-2.08,1.83-4.44,1.83-7.07s-.61-4.99-1.83-7.08c-1.22-2.08-2.85-3.73-4.9-4.95s-4.31-1.83-6.77-1.83h-16.15v27.7Z"/>
      </g>
      <g>
        <g>
          <path class="cls-1" d="m389.36,762.79v-27.3h10.06c1.5,0,2.84.38,4.05,1.13,1.2.75,2.16,1.76,2.88,3.01.71,1.25,1.07,2.64,1.07,4.14s-.36,2.93-1.09,4.18c-.73,1.25-1.7,2.25-2.92,2.99-1.22.74-2.54,1.11-3.99,1.11h-4.68v10.73h-5.38Zm5.38-16.11h4.08c.6,0,1.14-.15,1.62-.44.48-.29.87-.69,1.16-1.19s.44-1.06.44-1.67-.15-1.15-.44-1.65c-.29-.5-.68-.9-1.16-1.2-.48-.3-1.02-.45-1.62-.45h-4.08v6.59Z"/>
          <path class="cls-1" d="m418.94,735.49h6.12l9.91,27.3h-5.71l-1.64-4.52h-11.23l-1.64,4.52h-5.71l9.91-27.3Zm-.58,17.39h7.29l-3.67-10-3.63,10Z"/>
          <path class="cls-1" d="m449.73,763.3c-1.53,0-3-.24-4.4-.72s-2.62-1.18-3.67-2.09c-1.05-.91-1.8-1.99-2.25-3.24l5.05-1.87c.16.44.48.85.98,1.24.49.38,1.11.7,1.85.94.74.24,1.55.36,2.44.36s1.64-.13,2.39-.38c.75-.25,1.35-.61,1.81-1.06s.69-.99.69-1.6-.24-1.12-.72-1.52c-.48-.4-1.1-.72-1.85-.96s-1.53-.43-2.32-.56c-1.96-.29-3.72-.75-5.27-1.39-1.55-.64-2.78-1.53-3.68-2.67-.9-1.14-1.35-2.58-1.35-4.34s.48-3.17,1.43-4.43,2.22-2.24,3.78-2.94c1.57-.7,3.26-1.05,5.08-1.05,1.51,0,2.96.24,4.37.72,1.4.48,2.63,1.18,3.68,2.09s1.8,2,2.25,3.28l-5.05,1.83c-.16-.44-.48-.85-.98-1.23-.49-.38-1.11-.68-1.85-.92-.74-.23-1.55-.35-2.42-.35-.83-.01-1.62.11-2.37.37-.75.26-1.36.62-1.83,1.07-.48.46-.71.97-.71,1.56,0,.77.22,1.34.67,1.74.45.39,1.04.67,1.78.84.74.17,1.56.32,2.46.45,1.85.27,3.55.76,5.11,1.45s2.81,1.62,3.75,2.77c.94,1.15,1.41,2.55,1.41,4.2s-.47,3.17-1.42,4.43c-.95,1.26-2.2,2.24-3.76,2.95-1.56.7-3.26,1.05-5.09,1.05Z"/>
          <path class="cls-1" d="m477.48,763.3c-1.53,0-3-.24-4.4-.72s-2.62-1.18-3.67-2.09c-1.05-.91-1.8-1.99-2.25-3.24l5.05-1.87c.16.44.48.85.98,1.24.49.38,1.11.7,1.85.94.74.24,1.55.36,2.44.36s1.64-.13,2.39-.38c.75-.25,1.35-.61,1.81-1.06s.69-.99.69-1.6-.24-1.12-.72-1.52c-.48-.4-1.1-.72-1.85-.96s-1.53-.43-2.32-.56c-1.96-.29-3.72-.75-5.27-1.39-1.55-.64-2.78-1.53-3.68-2.67-.9-1.14-1.35-2.58-1.35-4.34s.48-3.17,1.43-4.43,2.22-2.24,3.78-2.94c1.57-.7,3.26-1.05,5.08-1.05,1.51,0,2.96.24,4.37.72,1.4.48,2.63,1.18,3.68,2.09s1.8,2,2.25,3.28l-5.05,1.83c-.16-.44-.48-.85-.98-1.23-.49-.38-1.11-.68-1.85-.92-.74-.23-1.55-.35-2.42-.35-.83-.01-1.62.11-2.37.37-.75.26-1.36.62-1.83,1.07-.48.46-.71.97-.71,1.56,0,.77.22,1.34.67,1.74.45.39,1.04.67,1.78.84.74.17,1.56.32,2.46.45,1.85.27,3.55.76,5.11,1.45s2.81,1.62,3.75,2.77c.94,1.15,1.41,2.55,1.41,4.2s-.47,3.17-1.42,4.43c-.95,1.26-2.2,2.24-3.76,2.95-1.56.7-3.26,1.05-5.09,1.05Z"/>
          <path class="cls-1" d="m495.92,762.79v-27.3h5.38v27.3h-5.38Z"/>
          <path class="cls-1" d="m522.48,763.3c-1.85,0-3.58-.37-5.21-1.1-1.63-.73-3.06-1.75-4.29-3.05-1.24-1.3-2.2-2.8-2.91-4.51-.7-1.71-1.05-3.54-1.05-5.49s.35-3.78,1.05-5.49c.7-1.71,1.67-3.21,2.91-4.51,1.23-1.3,2.66-2.32,4.29-3.05,1.62-.73,3.36-1.1,5.21-1.1s3.6.37,5.23,1.1c1.62.73,3.05,1.75,4.29,3.05,1.24,1.3,2.2,2.8,2.9,4.51.7,1.71,1.04,3.54,1.04,5.49s-.35,3.78-1.04,5.49c-.7,1.71-1.66,3.21-2.9,4.51-1.23,1.3-2.67,2.32-4.29,3.05-1.63.73-3.37,1.1-5.23,1.1Zm0-5.38c1.1,0,2.15-.23,3.12-.69.98-.46,1.83-1.09,2.57-1.9.74-.81,1.32-1.74,1.75-2.79.42-1.05.63-2.18.63-3.39s-.21-2.34-.63-3.4-1-1.99-1.75-2.79c-.74-.8-1.6-1.43-2.57-1.89-.97-.46-2.02-.69-3.12-.69s-2.15.23-3.12.69c-.98.46-1.83,1.1-2.57,1.9-.74.81-1.32,1.74-1.75,2.79-.42,1.05-.63,2.18-.63,3.39s.21,2.34.63,3.4,1,1.99,1.75,2.79c.74.8,1.6,1.43,2.57,1.89.98.46,2.01.69,3.12.69Z"/>
          <path class="cls-1" d="m542.59,762.79v-27.3h5.81l10.65,17.57v-17.57h5.38v27.3h-5.81l-10.65-17.57v17.57h-5.38Z"/>
        </g>
        <g>
          <path class="cls-1" d="m630.51,763.3c-1.53,0-3-.24-4.4-.72s-2.62-1.18-3.67-2.09c-1.05-.91-1.8-1.99-2.25-3.24l5.05-1.87c.16.44.48.85.98,1.24.49.38,1.11.7,1.85.94.74.24,1.55.36,2.44.36s1.64-.13,2.39-.38c.75-.25,1.35-.61,1.81-1.06.46-.46.69-.99.69-1.6s-.24-1.12-.72-1.52c-.48-.4-1.1-.72-1.85-.96s-1.53-.43-2.32-.56c-1.96-.29-3.72-.75-5.27-1.39-1.55-.64-2.78-1.53-3.68-2.67-.9-1.14-1.35-2.58-1.35-4.34s.48-3.17,1.43-4.43,2.22-2.24,3.78-2.94c1.57-.7,3.26-1.05,5.08-1.05,1.51,0,2.96.24,4.37.72,1.4.48,2.63,1.18,3.68,2.09,1.05.91,1.8,2,2.25,3.28l-5.05,1.83c-.16-.44-.48-.85-.97-1.23-.49-.38-1.11-.68-1.85-.92-.74-.23-1.55-.35-2.42-.35-.83-.01-1.62.11-2.37.37-.75.26-1.36.62-1.83,1.07-.48.46-.71.97-.71,1.56,0,.77.22,1.34.67,1.74.45.39,1.04.67,1.78.84.74.17,1.56.32,2.46.45,1.85.27,3.55.76,5.11,1.45,1.56.7,2.81,1.62,3.75,2.77s1.41,2.55,1.41,4.2-.47,3.17-1.42,4.43c-.95,1.26-2.2,2.24-3.76,2.95-1.56.7-3.26,1.05-5.09,1.05Z"/>
          <path class="cls-1" d="m664.13,735.49h5.38v27.3h-5.38v-11.93h-10.37v11.93h-5.38v-27.3h5.38v9.98h10.37v-9.98Z"/>
          <path class="cls-1" d="m686.56,735.49h6.12l9.91,27.3h-5.71l-1.64-4.52h-11.23l-1.64,4.52h-5.71l9.91-27.3Zm-.58,17.39h7.29l-3.67-10-3.63,10Z"/>
          <path class="cls-1" d="m709.02,762.79v-27.3h10.84c1.48,0,2.82.37,4.03,1.12,1.2.75,2.16,1.75,2.87,3,.71,1.25,1.06,2.64,1.06,4.16,0,1.2-.21,2.3-.62,3.32-.42,1.02-1,1.92-1.76,2.68-.75.77-1.63,1.37-2.63,1.79l6.49,11.21h-6.2l-6.22-10.73h-2.48v10.73h-5.38Zm5.38-16.11h4.82c.58,0,1.12-.15,1.61-.44.49-.29.88-.69,1.17-1.19.29-.5.44-1.06.44-1.67s-.15-1.15-.44-1.65c-.29-.5-.68-.9-1.17-1.2-.49-.3-1.02-.45-1.61-.45h-4.82v6.59Z"/>
          <path class="cls-1" d="m736.5,762.79v-27.3h5.38v27.3h-5.38Z"/>
          <path class="cls-1" d="m750.38,762.79v-27.3h5.81l10.65,17.57v-17.57h5.38v27.3h-5.81l-10.65-17.57v17.57h-5.38Z"/>
          <path class="cls-1" d="m792.77,763.3c-1.9,0-3.66-.37-5.29-1.11-1.63-.74-3.06-1.76-4.27-3.07-1.22-1.31-2.16-2.82-2.84-4.53-.68-1.72-1.01-3.54-1.01-5.48,0-2.08.37-3.98,1.11-5.69.74-1.72,1.75-3.2,3.02-4.46,1.27-1.25,2.72-2.22,4.34-2.91,1.62-.68,3.31-1.02,5.06-1.02,1.92,0,3.81.45,5.66,1.35,1.85.9,3.5,2.32,4.95,4.27l-4.8,2.57c-.83-.96-1.76-1.68-2.78-2.15-1.02-.47-2.06-.7-3.11-.7s-2.06.21-3.03.64c-.97.43-1.83,1.04-2.58,1.83-.75.79-1.35,1.73-1.79,2.81-.44,1.08-.66,2.27-.66,3.57,0,1.21.21,2.34.63,3.39.42,1.05,1,1.98,1.75,2.77.74.79,1.6,1.41,2.58,1.86s2.03.67,3.15.67c.69,0,1.37-.1,2.04-.3.67-.2,1.31-.5,1.92-.89.61-.39,1.17-.88,1.69-1.46s.96-1.26,1.36-2.03h-4.23v-4.68h10.57c.08,2.02-.21,3.91-.88,5.69s-1.61,3.35-2.85,4.71-2.68,2.42-4.33,3.19c-1.65.77-3.44,1.15-5.36,1.15Z"/>
        </g>
        <circle class="cls-1" cx="361.75" cy="751.8" r="6.26"/>
        <circle class="cls-1" cx="592.98" cy="751.8" r="6.26"/>
        <circle class="cls-1" cx="834.67" cy="751.8" r="6.26"/>
      </g>
    </g>
  </g>
</svg>