<?xml version="1.0" encoding="UTF-8"?>
<svg xmlns="http://www.w3.org/2000/svg" xmlns:xlink="http://www.w3.org/1999/xlink" viewBox="0 0 1268.2 228.43">
  <defs>
    <style>
      .cls-1 {
        fill: #191d37;
      }

      .cls-2 {
        fill: url(#Dégradé_sans_nom_20);
      }

      .cls-2, .cls-3, .cls-4, .cls-5, .cls-6 {
        stroke-miterlimit: 10;
      }

      .cls-2, .cls-3, .cls-5, .cls-6 {
        stroke-width: 5px;
      }

      .cls-2, .cls-4, .cls-5, .cls-6 {
        stroke: #191d37;
      }

      .cls-3 {
        fill: url(#Dégradé_sans_nom_38);
        stroke: #1a1d37;
      }

      .cls-4 {
        fill: none;
        stroke-width: 10px;
      }

      .cls-5 {
        fill: url(#Dégradé_sans_nom_30);
      }

      .cls-6 {
        fill: url(#Dégradé_sans_nom_48);
      }
    </style>
    <linearGradient id="Dégradé_sans_nom_20" data-name="Dégradé sans nom 20" x1="88.24" y1="118.93" x2="184.38" y2="118.93" gradientUnits="userSpaceOnUse">
      <stop offset="0" stop-color="#ffd402"/>
      <stop offset=".43" stop-color="#f18318"/>
      <stop offset=".72" stop-color="#e6311f"/>
    </linearGradient>
    <linearGradient id="Dégradé_sans_nom_30" data-name="Dégradé sans nom 30" x1="163.56" y1="118.93" x2="265.55" y2="118.93" gradientUnits="userSpaceOnUse">
      <stop offset="0" stop-color="#3667b0"/>
      <stop offset=".5" stop-color="#7ecde6"/>
      <stop offset="1" stop-color="#a9cf86"/>
    </linearGradient>
    <linearGradient id="Dégradé_sans_nom_38" data-name="Dégradé sans nom 38" x1="177.11" y1="116.25" x2="177.11" y2="204.09" gradientUnits="userSpaceOnUse">
      <stop offset="0" stop-color="#3f5ba6"/>
      <stop offset=".62" stop-color="#e72988"/>
    </linearGradient>
    <linearGradient id="Dégradé_sans_nom_48" data-name="Dégradé sans nom 48" x1="169.21" y1="134.21" x2="180.75" y2="90.58" gradientUnits="userSpaceOnUse">
      <stop offset="0" stop-color="#e6311f"/>
      <stop offset=".5" stop-color="#f18318"/>
      <stop offset="1" stop-color="#ffd402"/>
    </linearGradient>
  </defs>
  <g id="Calque_5" data-name="Calque 5">
    <g>
      <g>
        <path class="cls-1" d="m176.97,178.88c-1.58,0-2.86,1.28-2.86,2.86v37.82c0,1.58,1.28,2.86,2.86,2.86s2.86-1.28,2.86-2.86v-37.82c0-1.58-1.28-2.86-2.86-2.86Z"/>
        <path class="cls-1" d="m176.97,15.45c-1.58,0-2.86,1.28-2.86,2.86v42.58c0,1.58,1.28,2.86,2.86,2.86s2.86-1.28,2.86-2.86V18.31c0-1.58-1.28-2.86-2.86-2.86Z"/>
        <path class="cls-1" d="m189.32,183.43c-1.58,0-2.86,1.28-2.86,2.86v27.39c0,1.58,1.28,2.86,2.86,2.86s2.86-1.28,2.86-2.86v-27.39c0-1.58-1.28-2.86-2.86-2.86Z"/>
        <path class="cls-1" d="m189.32,21.33c-1.58,0-2.86,1.28-2.86,2.86v32.15c0,1.58,1.28,2.86,2.86,2.86s2.86-1.28,2.86-2.86V24.18c0-1.58-1.28-2.86-2.86-2.86Z"/>
        <path class="cls-1" d="m201.67,185.43c-1.58,0-2.86,1.28-2.86,2.86v18.94c0,1.58,1.28,2.86,2.86,2.86s2.86-1.28,2.86-2.86v-18.94c0-1.58-1.28-2.86-2.86-2.86Z"/>
        <path class="cls-1" d="m201.67,27.78c-1.58,0-2.86,1.28-2.86,2.86v23.69c0,1.58,1.28,2.86,2.86,2.86s2.86-1.28,2.86-2.86v-23.69c0-1.58-1.28-2.86-2.86-2.86Z"/>
        <path class="cls-1" d="m214.02,185.13c-1.58,0-2.86,1.28-2.86,2.86v13.74c0,1.58,1.28,2.86,2.86,2.86s2.86-1.28,2.86-2.86v-13.74c0-1.58-1.28-2.86-2.86-2.86Z"/>
        <path class="cls-1" d="m214.02,33.27c-1.58,0-2.86,1.28-2.86,2.86v18.5c0,1.58,1.28,2.86,2.86,2.86s2.86-1.28,2.86-2.86v-18.5c0-1.58-1.28-2.86-2.86-2.86Z"/>
        <path class="cls-1" d="m226.37,182.51c-1.58,0-2.86,1.28-2.86,2.86v9.46c0,1.58,1.28,2.86,2.86,2.86s2.86-1.28,2.86-2.86v-9.46c0-1.58-1.28-2.86-2.86-2.86Z"/>
        <path class="cls-1" d="m226.37,40.17c-1.58,0-2.86,1.28-2.86,2.86v14.22c0,1.58,1.28,2.86,2.86,2.86s2.86-1.28,2.86-2.86v-14.22c0-1.58-1.28-2.86-2.86-2.86Z"/>
        <path class="cls-1" d="m238.72,177.21c-1.58,0-2.86,1.28-2.86,2.86v8.4c0,1.58,1.28,2.86,2.86,2.86s2.86-1.28,2.86-2.86v-8.4c0-1.58-1.28-2.86-2.86-2.86Z"/>
        <path class="cls-1" d="m238.72,46.54c-1.58,0-2.86,1.28-2.86,2.86v13.15c0,1.58,1.28,2.86,2.86,2.86s2.86-1.28,2.86-2.86v-13.15c0-1.58-1.28-2.86-2.86-2.86Z"/>
        <path class="cls-1" d="m278.28,86.13v79.1c0,1.58-1.28,2.86-2.86,2.86s-2.86-1.28-2.86-2.86v-79.1c0-1.58,1.28-2.86,2.86-2.86s2.86,1.28,2.86,2.86Z"/>
        <path class="cls-1" d="m290.63,73.14v105.07c0,1.58-1.28,2.86-2.86,2.86s-2.86-1.28-2.86-2.86v-105.07c0-1.58,1.28-2.86,2.86-2.86s2.86,1.28,2.86,2.86Z"/>
        <path class="cls-1" d="m302.98,100.94v49.49c0,1.58-1.28,2.86-2.86,2.86s-2.86-1.28-2.86-2.86v-49.49c0-1.58,1.28-2.86,2.86-2.86s2.86,1.28,2.86,2.86Z"/>
        <path class="cls-1" d="m315.32,108.54v34.28c0,1.58-1.28,2.86-2.86,2.86s-2.86-1.28-2.86-2.86v-34.28c0-1.58,1.28-2.86,2.86-2.86s2.86,1.28,2.86,2.86Z"/>
        <circle class="cls-1" cx="261.46" cy="54.96" r="4.37" transform="translate(-5.63 61.54) rotate(-13.28)"/>
        <g>
          <path class="cls-1" d="m327.68,115.29v20.79c0,1.58-1.28,2.86-2.86,2.86s-2.86-1.28-2.86-2.86v-20.79c0-1.58,1.28-2.86,2.86-2.86s2.86,1.28,2.86,2.86Z"/>
          <path class="cls-1" d="m340.09,125.68c0,2.41-1.96,4.37-4.37,4.37s-4.37-1.96-4.37-4.37,1.96-4.37,4.37-4.37,4.37,1.96,4.37,4.37Z"/>
        </g>
        <path class="cls-1" d="m164.62,183.42c-1.58,0-2.86,1.28-2.86,2.86v27.39c0,1.58,1.28,2.86,2.86,2.86s2.86-1.28,2.86-2.86v-27.39c0-1.58-1.28-2.86-2.86-2.86Z"/>
        <path class="cls-1" d="m164.62,21.33c-1.58,0-2.86,1.28-2.86,2.86v32.15c0,1.58,1.28,2.86,2.86,2.86s2.86-1.28,2.86-2.86V24.18c0-1.58-1.28-2.86-2.86-2.86Z"/>
        <path class="cls-1" d="m152.27,185.43c-1.58,0-2.86,1.28-2.86,2.86v18.94c0,1.58,1.28,2.86,2.86,2.86s2.86-1.28,2.86-2.86v-18.94c0-1.58-1.28-2.86-2.86-2.86Z"/>
        <path class="cls-1" d="m152.27,27.78c-1.58,0-2.86,1.28-2.86,2.86v23.69c0,1.58,1.28,2.86,2.86,2.86s2.86-1.28,2.86-2.86v-23.69c0-1.58-1.28-2.86-2.86-2.86Z"/>
        <path class="cls-1" d="m139.92,185.13c-1.58,0-2.86,1.28-2.86,2.86v13.74c0,1.58,1.28,2.86,2.86,2.86s2.86-1.28,2.86-2.86v-13.74c0-1.58-1.28-2.86-2.86-2.86Z"/>
        <path class="cls-1" d="m139.92,33.27c-1.58,0-2.86,1.28-2.86,2.86v18.5c0,1.58,1.28,2.86,2.86,2.86s2.86-1.28,2.86-2.86v-18.5c0-1.58-1.28-2.86-2.86-2.86Z"/>
        <path class="cls-1" d="m127.57,182.51c-1.58,0-2.86,1.28-2.86,2.86v9.46c0,1.58,1.28,2.86,2.86,2.86s2.86-1.28,2.86-2.86v-9.46c0-1.58-1.28-2.86-2.86-2.86Z"/>
        <path class="cls-1" d="m127.57,40.17c-1.58,0-2.86,1.28-2.86,2.86v14.22c0,1.58,1.28,2.86,2.86,2.86s2.86-1.28,2.86-2.86v-14.22c0-1.58-1.28-2.86-2.86-2.86Z"/>
        <path class="cls-1" d="m115.23,177.22c-1.58,0-2.86,1.28-2.86,2.86v8.39c0,1.58,1.28,2.86,2.86,2.86s2.86-1.28,2.86-2.86v-8.39c0-1.58-1.28-2.86-2.86-2.86Z"/>
        <path class="cls-1" d="m115.23,46.54c-1.58,0-2.86,1.28-2.86,2.86v13.14c0,1.58,1.28,2.86,2.86,2.86s2.86-1.28,2.86-2.86v-13.14c0-1.58-1.28-2.86-2.86-2.86Z"/>
        <path class="cls-1" d="m78.52,83.27c-1.58,0-2.86,1.28-2.86,2.86v79.1c0,1.58,1.28,2.86,2.86,2.86s2.86-1.28,2.86-2.86v-79.1c0-1.58-1.28-2.86-2.86-2.86Z"/>
        <path class="cls-1" d="m66.17,70.29c-1.58,0-2.86,1.28-2.86,2.86v105.07c0,1.58,1.28,2.86,2.86,2.86s2.86-1.28,2.86-2.86v-105.07c0-1.58-1.28-2.86-2.86-2.86Z"/>
        <path class="cls-1" d="m53.82,98.08c-1.58,0-2.86,1.28-2.86,2.86v49.49c0,1.58,1.28,2.86,2.86,2.86s2.86-1.28,2.86-2.86v-49.49c0-1.58-1.28-2.86-2.86-2.86Z"/>
        <path class="cls-1" d="m41.47,105.68c-1.58,0-2.86,1.28-2.86,2.86v34.28c0,1.58,1.28,2.86,2.86,2.86s2.86-1.28,2.86-2.86v-34.28c0-1.58-1.28-2.86-2.86-2.86Z"/>
        <path class="cls-1" d="m29.12,112.43c-1.58,0-2.86,1.28-2.86,2.86v20.79c0,1.58,1.28,2.86,2.86,2.86s2.86-1.28,2.86-2.86v-20.79c0-1.58-1.28-2.86-2.86-2.86Z"/>
        <circle class="cls-1" cx="92.48" cy="54.96" r="4.37"/>
        <circle class="cls-1" cx="18.22" cy="125.68" r="4.37" transform="translate(-28.39 7.55) rotate(-13.28)"/>
      </g>
      <line class="cls-4" x1="176.97" y1="123.37" x2="176.97" y2="123.36"/>
      <path class="cls-2" d="m141.7,51.8c-10.5,0-20.43,2.41-29.27,6.7-12.16,5.9-22.27,15.37-28.97,27.04-5.65,9.84-8.88,21.24-8.88,33.39s3.23,23.56,8.88,33.39c6.7,11.67,16.81,21.13,28.97,27.04,8.84,4.29,18.78,6.7,29.27,6.7,37.07,0,67.13-30.05,67.13-67.13s-30.06-67.13-67.13-67.13Zm0,100.52c-.1,0-.2,0-.3,0-12.49-.11-23.34-7.07-28.97-17.31-2.63-4.77-4.12-10.25-4.12-16.08s1.5-11.31,4.12-16.08c5.63-10.24,16.48-17.2,28.97-17.31.1,0,.2,0,.3,0,18.44,0,33.4,14.95,33.4,33.4s-14.95,33.4-33.4,33.4Z"/>
      <path class="cls-5" d="m212.24,51.8c-10.5,0-20.43,2.41-29.27,6.7-12.16,5.9-22.27,15.37-28.97,27.04-5.65,9.84-8.88,21.24-8.88,33.39s3.23,23.56,8.88,33.39c6.7,11.67,16.81,21.13,28.97,27.04,8.84,4.29,18.78,6.7,29.27,6.7,37.07,0,67.13-30.05,67.13-67.13s-30.06-67.13-67.13-67.13Zm0,100.52c-.1,0-.2,0-.3,0-12.49-.11-23.34-7.07-28.97-17.31-2.63-4.77-4.12-10.25-4.12-16.08s1.5-11.31,4.12-16.08c5.63-10.24,16.48-17.2,28.97-17.31.1,0,.2,0,.3,0,18.44,0,33.4,14.95,33.4,33.4s-14.95,33.4-33.4,33.4Z"/>
      <path class="cls-3" d="m214.84,111.91c0,12.72-3.22,24.65-8.86,34.95-6.68,12.21-16.76,22.12-28.88,28.3-12.12-6.18-22.2-16.09-28.88-28.3-5.63-10.29-8.86-22.22-8.86-34.95,0-5.19,75.47-5.13,75.47,0Z"/>
      <path class="cls-6" d="m223.51,104.88c0,5.5-1.79,10.59-4.81,14.71-.74,1.01-1.55,1.96-2.43,2.84l-.53.52-16.87,16.47-17.27-16.32-.45-.43c-1.62-1.59-3.03-3.41-4.17-5.39-.46.8-.96,1.57-1.51,2.31-.74,1.01-1.55,1.96-2.43,2.84l-.53.52-16.87,16.47-17.27-16.32-.45-.43c-4.61-4.53-7.47-10.82-7.47-17.79,0-13.76,11.16-24.92,24.92-24.92,9.25,0,17.32,5.04,21.61,12.52,4.3-7.48,12.37-12.52,21.62-12.52,13.76,0,24.92,11.16,24.92,24.92Z"/>
    </g>
  </g>
  <g id="Calque_6" data-name="Calque 6">
    <g>
      <path class="cls-1" d="m466.52,155.23c-3.93,0-7.69-.62-11.28-1.85-3.58-1.23-6.72-3.02-9.4-5.35-2.68-2.33-4.61-5.1-5.77-8.3l12.95-4.8c.4,1.13,1.23,2.19,2.5,3.17,1.27.98,2.85,1.78,4.75,2.4,1.9.62,3.98.92,6.25.92s4.21-.33,6.12-.97c1.92-.65,3.47-1.56,4.65-2.73,1.18-1.17,1.77-2.53,1.77-4.1s-.62-2.87-1.85-3.9c-1.23-1.03-2.82-1.86-4.75-2.47-1.93-.62-3.92-1.09-5.95-1.42-5.03-.73-9.54-1.92-13.53-3.58-3.98-1.65-7.12-3.93-9.42-6.85s-3.45-6.62-3.45-11.12,1.23-8.12,3.68-11.35c2.45-3.23,5.68-5.75,9.7-7.55,4.02-1.8,8.36-2.7,13.03-2.7,3.87,0,7.6.62,11.2,1.85s6.74,3.02,9.43,5.35c2.68,2.33,4.61,5.13,5.77,8.4l-12.95,4.7c-.4-1.13-1.23-2.18-2.5-3.15-1.27-.97-2.85-1.75-4.75-2.35-1.9-.6-3.97-.9-6.2-.9-2.13-.03-4.16.28-6.08.95-1.92.67-3.48,1.58-4.7,2.75s-1.82,2.5-1.82,4c0,1.97.57,3.45,1.73,4.45,1.15,1,2.67,1.72,4.57,2.15,1.9.43,4,.82,6.3,1.15,4.73.7,9.1,1.94,13.1,3.72s7.21,4.15,9.62,7.1c2.42,2.95,3.62,6.54,3.62,10.78s-1.22,8.12-3.65,11.35c-2.43,3.23-5.65,5.75-9.65,7.55-4,1.8-8.35,2.7-13.05,2.7Z"/>
      <path class="cls-1" d="m534.07,155.23c-4.73,0-9.18-.94-13.35-2.83-4.17-1.88-7.83-4.49-11-7.82-3.17-3.33-5.65-7.19-7.45-11.58-1.8-4.38-2.7-9.08-2.7-14.08s.9-9.69,2.7-14.08c1.8-4.38,4.28-8.24,7.45-11.57,3.17-3.33,6.83-5.94,11-7.83,4.17-1.88,8.62-2.83,13.35-2.83s9.23.94,13.4,2.83c4.17,1.88,7.83,4.49,11,7.83,3.17,3.33,5.64,7.19,7.43,11.57,1.78,4.38,2.67,9.08,2.67,14.08s-.89,9.69-2.67,14.08c-1.78,4.38-4.26,8.24-7.43,11.58-3.17,3.33-6.83,5.94-11,7.82-4.17,1.88-8.63,2.83-13.4,2.83Zm0-13.8c2.83,0,5.5-.59,8-1.77s4.7-2.81,6.6-4.88,3.39-4.45,4.48-7.15c1.08-2.7,1.62-5.6,1.62-8.7s-.54-6.01-1.62-8.72c-1.08-2.72-2.58-5.1-4.48-7.15s-4.1-3.67-6.6-4.85c-2.5-1.18-5.17-1.78-8-1.78s-5.5.59-8,1.78c-2.5,1.18-4.7,2.81-6.6,4.88-1.9,2.07-3.39,4.45-4.48,7.15-1.08,2.7-1.62,5.6-1.62,8.7s.54,6.01,1.62,8.73c1.08,2.72,2.58,5.1,4.48,7.15s4.1,3.67,6.6,4.85,5.17,1.77,8,1.77Z"/>
      <path class="cls-1" d="m604.97,155.23c-5.6,0-10.52-1.37-14.77-4.1s-7.57-6.41-9.95-11.03c-2.38-4.62-3.58-9.74-3.58-15.38v-40.8h13.8v40.8c0,3.03.57,5.82,1.7,8.35,1.13,2.53,2.78,4.56,4.95,6.08,2.17,1.52,4.78,2.27,7.85,2.27s5.73-.75,7.88-2.25c2.15-1.5,3.78-3.52,4.88-6.05,1.1-2.53,1.65-5.33,1.65-8.4v-40.8h13.8v40.8c0,4.23-.67,8.19-2.02,11.88-1.35,3.68-3.27,6.93-5.77,9.73s-5.48,4.98-8.93,6.55c-3.45,1.57-7.27,2.35-11.48,2.35Z"/>
      <path class="cls-1" d="m642.82,153.93v-70h14.9l27.3,45.05v-45.05h13.8v70h-14.9l-27.3-45.05v45.05h-13.8Z"/>
      <path class="cls-1" d="m709.82,153.93v-70h23.2c4.83,0,9.36.91,13.57,2.73,4.22,1.82,7.93,4.33,11.15,7.55s5.73,6.93,7.55,11.15c1.82,4.22,2.73,8.74,2.73,13.58s-.91,9.36-2.73,13.58c-1.82,4.22-4.33,7.93-7.55,11.15s-6.93,5.73-11.15,7.55c-4.22,1.82-8.74,2.72-13.57,2.72h-23.2Zm13.8-13.8h9.4c2.87,0,5.57-.55,8.12-1.65,2.55-1.1,4.81-2.62,6.77-4.55,1.97-1.93,3.51-4.18,4.62-6.75,1.12-2.57,1.67-5.32,1.67-8.25s-.56-5.67-1.67-8.22c-1.12-2.55-2.65-4.8-4.6-6.75s-4.2-3.48-6.75-4.58-5.27-1.65-8.17-1.65h-9.4v42.4Z"/>
      <path class="cls-1" d="m828.97,83.93v7h-24v63h-7v-63h-23.95v-7h54.95Z"/>
      <path class="cls-1" d="m866.47,155.23c-4.73,0-9.18-.94-13.35-2.83-4.17-1.88-7.83-4.49-11-7.82-3.17-3.33-5.65-7.19-7.45-11.58-1.8-4.38-2.7-9.08-2.7-14.08s.9-9.69,2.7-14.08c1.8-4.38,4.28-8.24,7.45-11.57,3.17-3.33,6.83-5.94,11-7.83,4.17-1.88,8.62-2.83,13.35-2.83s9.23.94,13.4,2.83c4.17,1.88,7.83,4.49,11,7.83,3.17,3.33,5.64,7.19,7.43,11.57,1.78,4.38,2.67,9.08,2.67,14.08s-.89,9.69-2.67,14.08c-1.79,4.38-4.26,8.24-7.43,11.58-3.17,3.33-6.83,5.94-11,7.82-4.17,1.88-8.63,2.83-13.4,2.83Zm0-7c3.83,0,7.41-.77,10.72-2.32,3.32-1.55,6.23-3.68,8.75-6.38,2.52-2.7,4.48-5.82,5.9-9.35,1.42-3.53,2.12-7.28,2.12-11.25s-.72-7.77-2.15-11.33c-1.43-3.55-3.41-6.67-5.92-9.35-2.52-2.68-5.43-4.79-8.75-6.33-3.32-1.53-6.88-2.3-10.68-2.3s-7.41.78-10.72,2.33c-3.32,1.55-6.23,3.67-8.75,6.38-2.52,2.7-4.48,5.82-5.9,9.35-1.42,3.53-2.12,7.28-2.12,11.25s.72,7.82,2.15,11.35c1.43,3.53,3.41,6.65,5.93,9.35,2.52,2.7,5.43,4.81,8.75,6.33,3.32,1.52,6.88,2.27,10.67,2.27Z"/>
      <path class="cls-1" d="m942.07,155.23c-4.8,0-9.29-.94-13.48-2.83s-7.84-4.5-10.97-7.85c-3.13-3.35-5.58-7.22-7.35-11.6-1.77-4.38-2.65-9.08-2.65-14.08s.92-9.85,2.75-14.25c1.83-4.4,4.35-8.24,7.55-11.53,3.2-3.28,6.88-5.84,11.03-7.67,4.15-1.83,8.56-2.75,13.22-2.75,5.37,0,10.44,1.25,15.23,3.75,4.78,2.5,8.84,6.05,12.17,10.65l-6.25,3.4c-2.67-3.5-5.88-6.18-9.62-8.05-3.75-1.87-7.61-2.8-11.58-2.8s-7.31.76-10.62,2.28c-3.32,1.52-6.24,3.62-8.78,6.32-2.53,2.7-4.52,5.82-5.95,9.35-1.43,3.53-2.15,7.33-2.15,11.4s.72,7.82,2.15,11.35c1.43,3.53,3.41,6.64,5.92,9.33,2.52,2.68,5.44,4.78,8.77,6.3s6.9,2.27,10.7,2.27c3.13,0,6.11-.54,8.92-1.62,2.82-1.08,5.39-2.61,7.73-4.57,2.33-1.97,4.31-4.27,5.92-6.9,1.62-2.63,2.79-5.5,3.53-8.6h-18.9v-6.35h27.05c-.1,4.83-1.07,9.37-2.9,13.6-1.83,4.23-4.33,7.96-7.48,11.17-3.15,3.22-6.77,5.73-10.85,7.55-4.08,1.82-8.46,2.72-13.12,2.72Z"/>
      <path class="cls-1" d="m985.57,153.93v-70h42.6v7h-35.6v22h29.45v7h-29.45v27h35.6v7h-42.6Z"/>
      <path class="cls-1" d="m1091.12,83.93v7h-24v63h-7v-63h-23.95v-7h54.95Z"/>
      <path class="cls-1" d="m1143.87,83.93h7v70h-7v-34h-36.75v34h-7v-70h7v29h36.75v-29Z"/>
      <path class="cls-1" d="m1161.87,153.93v-70h42.6v7h-35.6v22h29.45v7h-29.45v27h35.6v7h-42.6Z"/>
      <path class="cls-1" d="m1215.12,153.93v-70h23.75c3.73,0,7.1.91,10.1,2.73s5.38,4.27,7.15,7.35c1.77,3.08,2.65,6.54,2.65,10.38,0,3.43-.7,6.55-2.1,9.35-1.4,2.8-3.31,5.12-5.72,6.95-2.42,1.83-5.14,3.05-8.17,3.65l17.1,29.6h-8.1l-16.85-29.05h-12.8v29.05h-7Zm7-36.05h16.15c2.47,0,4.72-.61,6.77-1.83,2.05-1.22,3.68-2.87,4.9-4.95,1.22-2.08,1.83-4.44,1.83-7.07s-.61-4.99-1.83-7.08c-1.22-2.08-2.85-3.73-4.9-4.95s-4.31-1.83-6.77-1.83h-16.15v27.7Z"/>
    </g>
  </g>
</svg>